<svg width="94" height="35" viewBox="0 0 94 35" fill="none" xmlns="http://www.w3.org/2000/svg">
<path d="M20.54 28.2796V27.7796H20.04H8.41316L20.4563 9.67659L20.54 9.55077V9.39965V5.07965V4.57965H20.04H1H0.5V5.07965V9.79965V10.2996H1H12.5501L0.58289 28.4039L0.5 28.5293V28.6796V32.9996V33.4996H1H20.04H20.54V32.9996V28.2796ZM24.2438 15.6479L24.2438 15.6479L24.241 15.6533C23.3204 17.4668 22.8669 19.533 22.8669 21.8396C22.8669 24.1721 23.32 26.264 24.2397 28.1033L24.2396 28.1033L24.2438 28.1114C25.1876 29.9157 26.4589 31.3313 28.0599 32.3424L28.0632 32.3445C29.6911 33.3549 31.4895 33.8596 33.4469 33.8596C35.1686 33.8596 36.705 33.5121 38.0417 32.8011L38.045 32.7993C38.9175 32.3267 39.673 31.7729 40.3069 31.1362V32.9996V33.4996H40.8069H46.4469H46.9469V32.9996V10.8396V10.3396H46.4469H40.8069H40.3069V10.8396V12.6685C39.6641 12.0421 38.9084 11.4995 38.0438 11.0393C36.7318 10.3268 35.2074 9.97965 33.4869 9.97965C31.5071 9.97965 29.697 10.4689 28.0685 11.4516L28.0685 11.4515L28.0652 11.4536C26.461 12.4386 25.1881 13.8426 24.2438 15.6479ZM39.567 18.6774L39.567 18.6774L39.5698 18.6825C40.0531 19.5525 40.3069 20.6246 40.3069 21.9196C40.3069 23.2129 40.0538 24.3002 39.5684 25.1993C39.0775 26.082 38.4215 26.7604 37.5982 27.2459C36.7675 27.709 35.8798 27.9396 34.9269 27.9396C34.0072 27.9396 33.1353 27.6992 32.3032 27.2104C31.5068 26.727 30.8467 26.0354 30.3257 25.1198C29.8383 24.1907 29.5869 23.102 29.5869 21.8396C29.5869 20.5742 29.8395 19.5155 30.3228 18.6445C30.8439 17.7271 31.503 17.0497 32.2964 16.593C33.0986 16.1311 33.9722 15.8996 34.9269 15.8996C35.8767 15.8996 36.7626 16.1419 37.5934 16.6306L37.5933 16.6307L37.603 16.6361C38.4201 17.0928 39.0751 17.7673 39.567 18.6774ZM51.9227 7.6332L51.9301 7.64057L51.9377 7.64762C52.7053 8.35375 53.6563 8.69965 54.7562 8.69965C55.856 8.69965 56.7983 8.35358 57.5422 7.64064L57.5425 7.64034C58.3085 6.905 58.6963 5.9876 58.6963 4.91965C58.6963 3.85482 58.3104 2.94892 57.5424 2.23875C56.8009 1.50101 55.8587 1.13965 54.7562 1.13965C53.6503 1.13965 52.6967 1.50302 51.9303 2.23865C51.1862 2.95174 50.8162 3.85809 50.8162 4.91965C50.8162 5.98096 51.1857 6.89621 51.9227 7.6332ZM58.0163 10.8396V10.3396H57.5163H51.9162H51.4162V10.8396V32.9996V33.4996H51.9162H57.5163H58.0163V32.9996V10.8396ZM84.1691 33.4996H84.6691V32.9996V19.9996C84.6691 16.922 83.829 14.4619 82.0869 12.6904C80.3537 10.9012 78.0846 10.0196 75.3291 10.0196C73.8739 10.0196 72.5205 10.3138 71.2762 10.9072C70.4779 11.2787 69.7681 11.7496 69.1491 12.3195V10.8396V10.3396H68.6491H63.0491H62.5491V10.8396V32.9996V33.4996H63.0491H68.6491H69.1491V32.9996V20.7596C69.1491 19.0793 69.5684 17.8736 70.3326 17.063C71.1285 16.2202 72.2143 15.7796 73.6491 15.7796C75.0546 15.7796 76.1112 16.2183 76.8804 17.0575L76.8853 17.0627C77.6496 17.8733 78.0691 19.0791 78.0691 20.7596V32.9996V33.4996H78.5691H84.1691Z" fill="#333333" stroke="black"/>
<circle cx="91" cy="31" r="3" fill="#6C3DFC"/>
</svg>
